<svg xmlns="http://www.w3.org/2000/svg" xmlns:xlink="http://www.w3.org/1999/xlink" width="209" height="160"><defs><path id="a" d="M1119.886 1027.165c-14.413.004-19.548-33.684-19.6-34.03-1.116-7.554-1.39-16.397-1.458-20.383h-10.263a3.607 3.607 0 1 1 0-7.216h13.85a3.609 3.609 0 0 1 3.609 3.607v1.484c0 .12.018 12.093 1.402 21.456 1.68 11.396 7.608 27.866 12.475 27.866.07 0 .144-.004.216-.012a3.609 3.609 0 0 1 .735 7.18 9.9 9.9 0 0 1-.966.048z"/><path id="b" d="M1110.46 1025.602c-3.133 0-8.28-1.157-11.127-5.588-.645-1.018-15.43-24.694-15.43-48.59v-9.722h-19.034v9.722c0 10.24-3.538 25.243-9.016 38.213a100.69 100.69 0 0 1-2.506 5.496 3.611 3.611 0 0 1-4.837 1.63 3.607 3.607 0 0 1-1.629-4.835 93.221 93.221 0 0 0 2.325-5.097c5.132-12.154 8.448-26.051 8.448-35.407v-13.332a3.609 3.609 0 0 1 3.608-3.61h26.25a3.608 3.608 0 0 1 3.607 3.61v13.332c0 21.776 14.158 44.487 14.3 44.713 1.554 2.414 5.327 2.236 5.37 2.236 2.019-.087 3.689 1.397 3.816 3.373a3.591 3.591 0 0 1-3.324 3.823c-.254.02-.528.033-.821.033z"/><path id="c" d="M1200.676 1091.549a3.604 3.604 0 0 1-3.607-3.605V979.729h-94.072a3.61 3.61 0 0 1 0-7.219h97.679a3.61 3.61 0 0 1 3.606 3.61v111.824a3.605 3.605 0 0 1-3.606 3.605z"/><path id="d" d="M1133.658 1043.847a3.608 3.608 0 0 1-3.607-3.61v-47.28c0-1.162-.696-2.031-1.319-2.031-.618 0-1.312.869-1.312 2.03v47.28a3.608 3.608 0 0 1-7.215 0v-47.28c0-5.096 3.824-9.244 8.527-9.244 4.706 0 8.536 4.148 8.536 9.245v47.28a3.61 3.61 0 0 1-3.61 3.61z"/><path id="e" d="M1156.51 1043.847a3.608 3.608 0 0 1-3.607-3.61v-47.28c0-1.162-.697-2.031-1.321-2.031-.618 0-1.311.869-1.311 2.03v47.28a3.609 3.609 0 0 1-7.216 0v-47.28c0-5.096 3.825-9.244 8.527-9.244 4.705 0 8.535 4.148 8.535 9.245v47.28a3.608 3.608 0 0 1-3.607 3.61z"/><path id="f" d="M1180.564 1043.847a3.607 3.607 0 0 1-3.608-3.61v-47.28c0-1.162-.695-2.031-1.32-2.031-.617 0-1.311.869-1.311 2.03v47.28a3.609 3.609 0 1 1-7.216 0v-47.28c0-5.096 3.825-9.244 8.528-9.244 4.704 0 8.533 4.148 8.533 9.245v47.28a3.608 3.608 0 0 1-3.605 3.61z"/><path id="g" d="M1060.943 1088.138h-60.926a3.607 3.607 0 0 1-3.608-3.606v-61.26a3.608 3.608 0 0 1 3.608-3.608h30.25l2.277-81.6a3.607 3.607 0 0 1 3.606-3.51h9.913a3.614 3.614 0 0 1 3.608 3.498l2.377 75.364a3.612 3.612 0 0 1-3.493 3.722c-2.018.089-3.657-1.502-3.72-3.491l-2.268-71.875h-2.908l-2.278 81.6a3.609 3.609 0 0 1-3.607 3.51h-30.149v54.04h57.318a3.608 3.608 0 0 1 0 7.215z"/><path id="h" d="M1190.703 1093.269c-5.967.004-11.893-1.254-17.704-3.762-24.57-10.597-34.115-6.576-43.35-2.688-4.647 1.958-9.455 3.983-15.713 3.983-8.245 0-14.288-2.655-19.617-5.002-8.869-3.9-15.875-6.98-31.606 1.876a3.613 3.613 0 0 1-4.914-1.377 3.606 3.606 0 0 1 1.374-4.914c18.874-10.62 28.623-6.338 38.051-2.19 5.134 2.258 9.986 4.389 16.712 4.389 4.801 0 8.561-1.581 12.914-3.414 10.13-4.27 21.615-9.102 49.008 2.71 7.56 3.263 15.322 4.01 23.08 2.223a3.62 3.62 0 0 1 4.326 2.706 3.607 3.607 0 0 1-2.706 4.324 43.687 43.687 0 0 1-9.855 1.136z"/></defs><use fill="#fff" xlink:href="#a" transform="translate(-996 -934)"/><use fill="#fff" xlink:href="#b" transform="translate(-996 -934)"/><use fill="#fff" xlink:href="#c" transform="translate(-996 -934)"/><use fill="#fff" xlink:href="#d" transform="translate(-996 -934)"/><use fill="#fff" xlink:href="#e" transform="translate(-996 -934)"/><use fill="#fff" xlink:href="#f" transform="translate(-996 -934)"/><use fill="#fff" xlink:href="#g" transform="translate(-996 -934)"/><use fill="#fff" xlink:href="#h" transform="translate(-996 -934)"/></svg>