<svg xmlns="http://www.w3.org/2000/svg" xmlns:xlink="http://www.w3.org/1999/xlink" width="175" height="177"><defs><path id="a" d="M1531.404 1044.186c-21.398 0-38.287-6.63-50.215-19.712-22.908-25.128-19.13-64.722-18.96-66.4a3.612 3.612 0 0 1 3.588-3.237h30.294a3.61 3.61 0 0 1 0 7.217h-26.895c-.353 9.668.163 38.782 17.334 57.587 10.497 11.498 25.586 17.326 44.862 17.326.321 0 .642-.004.967-.007h.038a3.61 3.61 0 0 1 3.608 3.575 3.616 3.616 0 0 1-3.573 3.644c-.35 0-.7.006-1.048.006z"/><path id="b" d="M1579.201 1100.264a3.609 3.609 0 0 1-3.594-3.963c.177-1.831.082-4.068-.19-5.075-5.312-2.007-13.758-4.063-13.846-4.086a3.601 3.601 0 0 1-2.605-2.46c-1.928-6.36-5.16-17.431-5.16-20.077 0-.91-.037-1.926-.08-3.186a247.882 247.882 0 0 1-.174-9.33 3.609 3.609 0 0 1 3.61-3.606c1.857 0 3.187-.321 3.75-.905.977-1.018.853-4.097.741-6.812a77.477 77.477 0 0 1-.085-3.2 3.605 3.605 0 0 1 2.508-3.435c30.203-9.667 33.437-67.135 33.765-82.09h-97.84c.332 14.955 3.59 72.435 33.766 82.09a3.604 3.604 0 0 1 2.508 3.436c0 1.062-.044 2.14-.085 3.199-.11 2.715-.238 5.794.74 6.812.558.584 1.89.905 3.75.905a3.609 3.609 0 0 1 3.61 3.606c0 4.267-.102 7.194-.175 9.33-.044 1.26-.08 2.28-.08 3.186 0 2.646-3.23 13.718-5.16 20.077a3.606 3.606 0 0 1-2.606 2.46c-.088.023-8.546 2.079-13.844 4.086-.27 1.007-.369 3.244-.188 5.075a3.614 3.614 0 0 1-3.238 3.942c-1.94.192-3.745-1.245-3.944-3.23-.38-3.813-.369-10.476 4.008-12.222 4.168-1.667 10.33-3.34 13.492-4.157 2.078-6.982 4.171-14.636 4.265-16.096 0-.913.035-2.007.083-3.367.05-1.484.114-3.362.147-5.811-2.217-.46-3.977-1.38-5.326-2.785-3.108-3.241-2.917-7.95-2.746-12.105l.018-.403c-37.05-15.111-36.293-88.507-36.243-91.693a3.606 3.606 0 0 1 3.608-3.548h105.118c1.97 0 3.574 1.58 3.607 3.546.052 3.188.808 76.584-36.24 91.695.004.135.01.267.016.403.171 4.154.363 8.864-2.746 12.105-1.35 1.407-3.108 2.326-5.325 2.785.033 2.449.098 4.327.146 5.81.045 1.36.083 2.455.083 3.433.095 1.4 2.185 9.049 4.267 16.03 3.157.818 9.322 2.49 13.493 4.16 4.374 1.744 4.39 8.407 4.007 12.22a3.61 3.61 0 0 1-3.586 3.25z"/><path id="c" d="M1597.473 1120.54h-97.105a3.604 3.604 0 0 1-3.606-3.609c0-14.413 12.752-22.067 13.297-22.384a3.616 3.616 0 0 1 1.825-.495h15.776a3.604 3.604 0 0 1 3.606 3.606 3.605 3.605 0 0 1-3.606 3.607h-14.69c-1.934 1.377-7.092 5.575-8.584 12.06h89.075c-1.48-6.533-6.634-10.692-8.581-12.06h-14.698a3.607 3.607 0 1 1 0-7.213h15.775c.642 0 1.272.171 1.826.495.542.317 13.296 7.971 13.296 22.384a3.604 3.604 0 0 1-3.606 3.608z"/><path id="d" d="M1566.435 1044.186c-.347 0-.695-.006-1.048-.006a3.613 3.613 0 0 1-3.571-3.645 3.607 3.607 0 0 1 3.606-3.575h.038c19.682.19 35.16-5.629 45.834-17.32 17.168-18.805 17.68-47.919 17.33-57.587h-26.891a3.609 3.609 0 0 1 0-7.217h30.29a3.611 3.611 0 0 1 3.59 3.238c.17 1.677 3.947 41.271-18.961 66.4-11.925 13.079-28.817 19.708-50.217 19.712z"/></defs><use fill="#fff" xlink:href="#a" transform="translate(-1461 -944)"/><use fill="#fff" xlink:href="#b" transform="translate(-1461 -944)"/><use fill="#fff" xlink:href="#c" transform="translate(-1461 -944)"/><use fill="#fff" xlink:href="#d" transform="translate(-1461 -944)"/></svg>