<svg xmlns="http://www.w3.org/2000/svg" xmlns:xlink="http://www.w3.org/1999/xlink" width="185" height="184"><defs><path id="a" d="M816.756 967.17a3.605 3.605 0 0 1-3.607-3.605V943.15h-21.553a3.61 3.61 0 0 1 0-7.218h25.16a3.608 3.608 0 0 1 3.608 3.608v24.025a3.606 3.606 0 0 1-3.608 3.606z"/><path id="b" d="M742.269 967.17a3.605 3.605 0 0 1-3.607-3.605V939.54a3.607 3.607 0 0 1 3.607-3.608h24.593a3.609 3.609 0 0 1 0 7.218h-20.986v20.415a3.605 3.605 0 0 1-3.607 3.606z"/><path id="c" d="M766.861 1017.639h-24.593a3.606 3.606 0 0 1-3.607-3.61v-25.73a3.61 3.61 0 0 1 3.607-3.607 3.61 3.61 0 0 1 3.608 3.608v22.123h20.985a3.608 3.608 0 0 1 0 7.216z"/><path id="d" d="M816.756 1017.639h-25.16a3.608 3.608 0 1 1 0-7.216h21.553V988.3a3.61 3.61 0 0 1 3.607-3.608 3.61 3.61 0 0 1 3.608 3.608v25.729a3.607 3.607 0 0 1-3.608 3.61z"/><path id="e" d="M779.513 987.695c-8.794 0-15.95-7.157-15.95-15.953 0-8.793 7.156-15.95 15.95-15.95 8.796 0 15.95 7.157 15.95 15.95 0 8.796-7.154 15.953-15.95 15.953zm0-24.687c-4.815 0-8.733 3.92-8.733 8.734 0 4.816 3.918 8.734 8.733 8.734 4.818 0 8.736-3.918 8.736-8.734 0-4.813-3.918-8.734-8.736-8.734z"/><path id="f" d="M802.799 1016.296a3.605 3.605 0 0 1-3.606-3.605V993.7c0-1.133-.92-2.051-2.05-2.051h-35.26c-1.13 0-2.05.918-2.05 2.052v18.989a3.606 3.606 0 0 1-3.606 3.605 3.607 3.607 0 0 1-3.61-3.605V993.7c0-5.108 4.157-9.27 9.266-9.27h35.26c5.109 0 9.263 4.162 9.263 9.27v18.99a3.605 3.605 0 0 1-3.607 3.605z"/><path id="g" d="M714.877 1017.718h-74.634a3.543 3.543 0 0 1-3.543-3.541V939.54a3.545 3.545 0 0 1 3.543-3.544h74.634a3.546 3.546 0 0 1 3.543 3.544v74.637a3.544 3.544 0 0 1-3.543 3.541zm-71.097-7.078v-67.55h67.55v67.55z"/><path id="h" d="M714.877 1119.156h-74.634a3.545 3.545 0 0 1-3.543-3.544v-74.636a3.542 3.542 0 0 1 3.543-3.541h74.634a3.542 3.542 0 0 1 3.543 3.541v74.636a3.545 3.545 0 0 1-3.543 3.544zm-71.097-7.086v-67.55h67.55v67.55z"/><path id="i" d="M816.905 1119.156h-74.637a3.546 3.546 0 0 1-3.544-3.544v-74.636a3.543 3.543 0 0 1 3.544-3.541h74.637a3.543 3.543 0 0 1 3.542 3.541v74.636a3.546 3.546 0 0 1-3.542 3.544zm-71.095-7.086v-67.55h67.55v67.55z"/></defs><use fill="#fff" xlink:href="#a" transform="translate(-636 -936)"/><use fill="#fff" xlink:href="#b" transform="translate(-636 -936)"/><use fill="#fff" xlink:href="#c" transform="translate(-636 -936)"/><use fill="#fff" xlink:href="#d" transform="translate(-636 -936)"/><use fill="#fff" xlink:href="#e" transform="translate(-636 -936)"/><use fill="#fff" xlink:href="#f" transform="translate(-636 -936)"/><use fill="#fff" xlink:href="#g" transform="translate(-636 -936)"/><use fill="#fff" xlink:href="#h" transform="translate(-636 -936)"/><use fill="#fff" xlink:href="#i" transform="translate(-636 -936)"/></svg>